<svg xmlns="http://www.w3.org/2000/svg"  viewBox="0 0 64 64" width="512px" height="512px"><radialGradient id="_BXoGX1iH1pQz77ZA9enJa" cx="32.375" cy="35.569" r="49.78" gradientUnits="userSpaceOnUse" spreadMethod="reflect"><stop offset="0" stop-color="#afeeff"/><stop offset=".193" stop-color="#bbf1ff"/><stop offset=".703" stop-color="#d7f8ff"/><stop offset="1" stop-color="#e1faff"/></radialGradient><path fill="url(#_BXoGX1iH1pQz77ZA9enJa)" d="M60,44H45l-2.6-1h6.012c1.138,0,2.202-0.721,2.497-1.821C51.355,39.516,50.096,38,48.5,38 c-0.828,0-1.5-0.672-1.5-1.5s0.672-1.5,1.5-1.5h2.912c1.139,0,2.202-0.721,2.497-1.821C54.355,31.516,53.096,29,51.5,29H51 c-1.105,0-2-0.895-2-2c0-1.105,0.895-2,2-2h9.412c1.139,0,2.202-0.721,2.497-1.821C63.355,21.516,62.096,20,60.5,20H59 c-1.105,0-2-0.895-2-2c0-1.105,0.895-2,2-2h2c1.848,0,3.319-1.693,2.94-3.605C63.657,10.972,62.32,10,60.869,10H50.5 C49.672,10,49,9.328,49,8.5S49.672,7,50.5,7h5.912c1.139,0,2.202-0.721,2.497-1.821C59.355,3.516,58.096,2,56.5,2H10.588 C9.449,2,8.386,2.721,8.091,3.821C7.645,5.484,8.904,7,10.5,7l0,0C11.881,7,13,8.119,13,9.5c0,1.381-1.119,2.5-2.5,2.5H9.588H7 c-1.65,0-3,1.35-3,3c0,1.65,1.35,3,3,3h19c0.352,0,0.685-0.073,1-0.185V29h-7.412c-1.139,0-2.202,1.721-2.497,2.821 c-0.219,0.817-0.024,1.595,0.418,2.179H3.5C2.119,34,1,35.119,1,36.5C1,37.881,2.119,39,3.5,39h1C5.881,39,7,40.119,7,41.5 C7,42.881,5.881,44,4.5,44H4c-1.657,0-3,1.343-3,3s1.343,3,3,3h5.5c1.381,0,2.5,1.119,2.5,2.5c0,1.381-1.119,2.5-2.5,2.5H8 c-1.657,0-3,1.343-3,3s1.343,3,3,3h48c1.657,0,3-1.343,3-3s-1.343-3-3-3h-0.5c-1.381,0-2.5-1.119-2.5-2.5c0-1.381,1.119-2.5,2.5-2.5 H60c1.657,0,3-1.343,3-3S61.657,44,60,44z M27,37.077L21.6,35H27V37.077z"/><linearGradient id="_BXoGX1iH1pQz77ZA9enJb" x1="1204.5" x2="1204.5" y1="53" y2="8" gradientTransform="matrix(-1 0 0 1 1242 0)" gradientUnits="userSpaceOnUse" spreadMethod="reflect"><stop offset="0" stop-color="#ffc662"/><stop offset=".004" stop-color="#ffc662"/><stop offset=".609" stop-color="#ffc582"/><stop offset="1" stop-color="#ffc491"/><stop offset="1" stop-color="#ffc491"/></linearGradient><path fill="url(#_BXoGX1iH1pQz77ZA9enJb)" d="M37.5 8A22.5 22.5 0 1 0 37.5 53A22.5 22.5 0 1 0 37.5 8Z"/><linearGradient id="_BXoGX1iH1pQz77ZA9enJc" x1="1211" x2="1211" y1="5" y2="60" gradientTransform="matrix(-1 0 0 1 1242 0)" gradientUnits="userSpaceOnUse" spreadMethod="reflect"><stop offset="0" stop-color="#ff8b67"/><stop offset=".847" stop-color="#ffa76a"/><stop offset="1" stop-color="#ffad6b"/><stop offset="1" stop-color="#ffad6b"/></linearGradient><path fill="url(#_BXoGX1iH1pQz77ZA9enJc)" d="M14,60H6.5C2.91,60,0,57.09,0,53.5v0C0,49.91,2.91,47,6.5,47h1c1.933,0,3.5-1.567,3.5-3.5v0 c0-1.933-1.567-3.5-3.5-3.5h0C3.91,40,1,37.09,1,33.5v0C1,29.91,3.91,27,7.5,27H9c2.761,0,5-2.239,5-5v0c0-9.389,7.611-17,17-17 l23,0c4.418,0,8,3.582,8,8v0c0,4.418-3.582,8-8,8H43c-8.284,0-15,6.716-15,15v10C28,53.732,21.732,60,14,60z"/><g><path fill="#717171" d="M58,31c0,2.211-1.789,4-4,4c-2.211,0-4-1.789-4-4s1.789-4,4-4C56.211,27,58,28.789,58,31z"/><path fill="#595859" d="M56,31c0,1.104-0.896,2-2,2s-2-0.896-2-2c0-1.104,0.896-2,2-2S56,29.896,56,31z"/><path fill="#9e9e9e" d="M54,29.5c0,0.828-0.672,1.5-1.5,1.5S51,30.328,51,29.5s0.672-1.5,1.5-1.5S54,28.672,54,29.5z"/><path fill="#8f8e8f" d="M52.009,30.911C52.164,30.965,52.327,31,52.5,31c0.828,0,1.5-0.672,1.5-1.5 c0-0.173-0.035-0.336-0.089-0.491C52.879,29.055,52.055,29.879,52.009,30.911z"/><g><path fill="#717171" d="M44,31c0,2.211-1.789,4-4,4c-2.211,0-4-1.789-4-4s1.789-4,4-4C42.211,27,44,28.789,44,31z"/><path fill="#595859" d="M42,31c0,1.104-0.896,2-2,2s-2-0.896-2-2c0-1.104,0.896-2,2-2S42,29.896,42,31z"/><path fill="#9e9e9e" d="M40,29.5c0,0.828-0.672,1.5-1.5,1.5S37,30.328,37,29.5s0.672-1.5,1.5-1.5S40,28.672,40,29.5z"/><path fill="#8f8e8f" d="M38.009,30.911C38.164,30.965,38.327,31,38.5,31c0.828,0,1.5-0.672,1.5-1.5 c0-0.173-0.035-0.336-0.089-0.491C38.879,29.055,38.055,29.879,38.009,30.911z"/></g></g><path fill="#717171" d="M49,39h-4c-0.55,0-1,0.45-1,1c0,1.657,1.343,3,3,3s3-1.343,3-3C50,39.45,49.55,39,49,39z"/></svg>