<svg xmlns="http://www.w3.org/2000/svg"  viewBox="0 0 64 64" width="512px" height="512px"><radialGradient id="SSMxYM~_txUDpmOsUyvJua" cx="32" cy="26.5" r="29.379" gradientUnits="userSpaceOnUse" spreadMethod="reflect"><stop offset="0" stop-color="#afeeff"/><stop offset=".193" stop-color="#bbf1ff"/><stop offset=".703" stop-color="#d7f8ff"/><stop offset="1" stop-color="#e1faff"/></radialGradient><path fill="url(#SSMxYM~_txUDpmOsUyvJua)" d="M56,47L56,47c1.65,0,3,1.35,3,3v0c0,1.65-1.35,3-3,3h0c-1.65,0-3-1.35-3-3v0 C53,48.35,54.35,47,56,47z M4,3L4,3c0,1.65,1.35,3,3,3h0c1.65,0,3-1.35,3-3v0c0-1.65-1.35-3-3-3h0C5.35,0,4,1.35,4,3z M64,28 c0,1.65-1.35,3-3,3h-4.5c-1.375,0-2.5,1.125-2.5,2.5s1.125,2.5,2.5,2.5h1c1.925,0,3.5,1.575,3.5,3.5S59.425,43,57.5,43H48 c-1.1,0-2,0.9-2,2c0,1.1,0.9,2,2,2c1.65,0,3,1.35,3,3c0,1.65-1.35,3-3,3H32c-1.65,0-3-1.35-3-3H11c-1.65,0-3-1.35-3-3 c0-1.65,1.35-3,3-3h1c1.65,0,3-1.35,3-3c0-1.65-1.35-3-3-3H5.5C3.575,38,2,36.425,2,34.5S3.575,31,5.5,31H7c1.1,0,2-0.9,2-2 c0-1.1-0.9-2-2-2H3.5C1.575,27,0,25.425,0,23.5S1.575,20,3.5,20H9c1.1,0,2-0.9,2-2c0-1.1-0.9-2-2-2H7c-1.65,0-3-1.35-3-3 c0-1.65,1.35-3,3-3h9c1.1,0,2-0.9,2-2c0-1.1-0.9-2-2-2h-1c-1.65,0-3-1.35-3-3c0-1.65,1.35-3,3-3h36c1.65,0,3,1.35,3,3 c0,1.65-1.35,3-3,3s-3,1.35-3,3c0,1.65,1.35,3,3,3h7.5c1.925,0,3.5,1.575,3.5,3.5S60.425,19,58.5,19H57c-1.65,0-3,1.35-3,3 c0,1.65,1.35,3,3,3h4C62.65,25,64,26.35,64,28z"/><linearGradient id="SSMxYM~_txUDpmOsUyvJub" x1="32" x2="32" y1="50.048" y2="8" gradientUnits="userSpaceOnUse" spreadMethod="reflect"><stop offset="0" stop-color="#ff9757"/><stop offset="1" stop-color="#ffb65b"/><stop offset="1" stop-color="#ffb65b"/></linearGradient><path fill="url(#SSMxYM~_txUDpmOsUyvJub)" d="M51,27.157C51,15.8,41.343,6.8,29.79,8.131c-8.777,1.031-15.799,8.113-16.673,16.963 c-0.731,6.782,2.046,12.832,6.725,16.664C21.893,43.533,24,46.2,24,49l0.148,1.048h15.671L40,49c0-2.651,1.932-5.174,3.978-6.942 C48.223,38.514,51,33.207,51,27.157z"/><linearGradient id="SSMxYM~_txUDpmOsUyvJuc" x1="32" x2="32" y1="59.346" y2="62.542" gradientUnits="userSpaceOnUse" spreadMethod="reflect"><stop offset="0" stop-color="#21b3e7"/><stop offset="1" stop-color="#21b1e6"/></linearGradient><path fill="url(#SSMxYM~_txUDpmOsUyvJuc)" d="M36,59c0,2.208-1.792,4-4,4s-4-1.792-4-4s1.792-4,4-4S36,56.792,36,59z"/><linearGradient id="SSMxYM~_txUDpmOsUyvJud" x1="32" x2="32" y1="60" y2="49" gradientUnits="userSpaceOnUse" spreadMethod="reflect"><stop offset="0" stop-color="#42c2ed"/><stop offset=".243" stop-color="#4dc7ef"/><stop offset=".674" stop-color="#6cd6f6"/><stop offset="1" stop-color="#87e3fc"/></linearGradient><path fill="url(#SSMxYM~_txUDpmOsUyvJud)" d="M35,60h-6c-2.761,0-5-2.239-5-5v-6h16v6C40,57.761,37.761,60,35,60z"/><linearGradient id="SSMxYM~_txUDpmOsUyvJue" x1="32" x2="32" y1="49" y2="58.982" gradientUnits="userSpaceOnUse" spreadMethod="reflect"><stop offset="0" stop-color="#40c7ee"/><stop offset=".394" stop-color="#39c3ed"/><stop offset=".948" stop-color="#27b8e8"/><stop offset="1" stop-color="#25b7e8"/></linearGradient><path fill="url(#SSMxYM~_txUDpmOsUyvJue)" d="M40,49v3l-16,2.266v-3L40,49z M26.005,58.982l13.537-1.917C39.83,56.434,40,55.739,40,55v-1 l-15.826,2.241C24.46,57.354,25.114,58.31,26.005,58.982z"/><linearGradient id="SSMxYM~_txUDpmOsUyvJuf" x1="32" x2="32" y1="42.931" y2="17.931" gradientUnits="userSpaceOnUse" spreadMethod="reflect"><stop offset="0" stop-color="#ffe79f"/><stop offset=".119" stop-color="#ffe9a6"/><stop offset="1" stop-color="#fff5d5"/></linearGradient><path fill="url(#SSMxYM~_txUDpmOsUyvJuf)" d="M38.828,25.172c-1.562-1.562-4.095-1.562-5.657,0C32.391,25.953,32,26.976,32,28 c0-1.024-0.391-2.047-1.172-2.828c-1.562-1.562-4.095-1.562-5.657,0c-1.562,1.562-1.562,4.095,0,5.657L28,33.657V49h8V33.657 l2.828-2.828C40.391,29.266,40.391,26.734,38.828,25.172z"/></svg>